# xmcd CD database file
# Copyright (C) 1997 Ti Kan
# 
# Track frame offsets:
#     150
#     11417
#     26195
#     43162
#     56750
#     74690
#     91420
#     104877
#     117410
#     130547
#     143005
# 
# Disc length: 2096 seconds
# 
# Revision: 1
# Processed by: cddbd v1.4b41PL1 Copyright (c) Steve Scherf et al.
# Submitted via: DiscPlay 4.0.4
# 
DISCID=a2082e0b
DTITLE=Highway 101 - Bing Bang Boom
DYEAR=1900
DGENRE=
TTITLE0=Bing Bang Boom
TTITLE1=Wherever You Are
TTITLE2=The Blame
TTITLE3=Storm Of Love
TTITLE4=Till I Get It Right
TTITLE5=Restless Kind
TTITLE6=Honky Tonk Baby
TTITLE7=River Of Tears
TTITLE8=Baby, I'm Missing You
TTITLE9=Desperate
TTITLE10=Big City Bound
EXTD=
EXTT0=
EXTT1=
EXTT2=
EXTT3=
EXTT4=
EXTT5=
EXTT6=
EXTT7=
EXTT8=
EXTT9=
EXTT10=
PLAYORDER=
